<?xml version="1.0" standalone="no"?>
<!DOCTYPE svg PUBLIC "-//W3C//DTD SVG 20010904//EN"
 "http://www.w3.org/TR/2001/REC-SVG-20010904/DTD/svg10.dtd">
<svg version="1.0" xmlns="http://www.w3.org/2000/svg"
 width="512.000000pt" height="512.000000pt" viewBox="0 0 512.000000 512.000000"
 preserveAspectRatio="xMidYMid meet">

  <circle cx="200pt" cy="200pt" r="190pt" fill="#E59E0F"/>
  <g transform="translate(0.000000,512.000000) scale(0.100000,-0.100000)"
  fill="#A32CC4" stroke="none">
    <path d="M2435 5114 c-926 -55 -1745 -586 -2152 -1399 -191 -380 -276 -735
    -276 -1155 0 -451 103 -847 325 -1254 89 -164 271 -415 355 -488 19 -17 19
    -16 32 43 9 48 20 68 51 99 92 92 260 54 295 -67 6 -22 3 -23 -40 -23 -39 0
    -47 4 -57 25 -14 31 -65 49 -101 36 -72 -28 -87 -163 -24 -221 32 -31 83 -26
    118 11 24 26 34 30 69 27 l41 -3 -23 -44 c-22 -42 -51 -64 -117 -88 -23 -9
    -21 -11 42 -61 184 -147 481 -313 708 -396 139 -51 344 -103 504 -128 200 -31
    550 -31 750 0 429 67 827 234 1170 492 52 39 97 75 100 80 3 5 -12 14 -33 20
    -84 22 -131 91 -132 192 0 68 12 103 48 142 35 37 81 56 138 56 93 0 156 -54
    176 -154 l11 -57 29 28 c96 91 270 334 362 505 542 1011 368 2225 -434 3029
    -470 472 -1068 731 -1735 752 -77 2 -167 3 -200 1z m444 -1003 c128 -48 205
    -159 203 -293 -3 -208 -235 -348 -424 -255 -77 38 -143 113 -164 185 -66 225
    168 446 385 363z m-205 -680 c68 -29 119 -89 245 -287 83 -129 135 -199 187
    -250 110 -108 250 -168 422 -181 l72 -6 0 -149 0 -150 -72 7 c-279 25 -479
    112 -662 286 -42 39 -78 70 -81 68 -2 -2 -23 -100 -47 -218 l-43 -214 158
    -152 157 -153 0 -338 c0 -187 -3 -356 -6 -376 l-7 -38 -143 0 -144 0 0 263 0
    263 -149 148 c-82 81 -154 146 -159 142 -5 -3 -14 -31 -21 -63 -58 -265 -155
    -676 -168 -710 l-16 -43 -152 0 -152 0 5 48 c2 27 77 415 167 863 94 471 158
    816 152 818 -5 2 -63 -18 -128 -44 l-119 -49 -2 -250 -3 -251 -152 -3 -153 -3
    0 350 0 350 28 15 c15 8 97 43 182 79 85 36 243 102 350 148 107 45 220 88
    250 95 69 17 146 11 204 -15z m-1240 -2435 c39 -16 66 -51 66 -83 0 -20 -5
    -23 -36 -23 -27 0 -41 7 -56 25 -30 39 -108 28 -108 -14 0 -26 17 -38 75 -52
    74 -18 104 -36 122 -73 20 -42 11 -95 -20 -123 -84 -76 -255 -42 -273 55 -6
    32 -6 32 32 32 29 0 43 -6 59 -26 36 -46 130 -30 123 20 -2 16 -20 27 -81 47
    -99 33 -127 59 -127 113 0 46 21 78 65 100 37 20 115 20 159 2z m502 -171 c34
    -99 63 -186 63 -192 1 -9 -14 -13 -43 -13 -43 0 -45 1 -58 43 l-15 42 -65 3
    -66 3 -14 -43 c-14 -42 -16 -43 -62 -46 -46 -3 -47 -2 -41 20 4 13 35 101 68
    196 l60 173 55 -3 55 -3 63 -180z m320 45 c24 -74 44 -137 44 -140 1 -3 23 58
    49 135 l46 140 48 3 c26 2 47 0 47 -3 0 -6 -111 -333 -125 -368 -6 -15 -17
    -17 -64 -15 l-56 3 -62 180 c-35 99 -63 186 -63 193 0 9 13 12 46 10 l46 -3
    44 -135z m652 -37 c33 -98 64 -186 67 -195 6 -16 1 -18 -43 -18 l-49 0 -13 45
    -13 46 -65 -3 -65 -3 -15 -42 c-14 -43 -14 -43 -62 -43 l-48 0 64 186 c36 103
    67 191 70 195 3 5 29 9 58 9 l53 0 61 -177z m449 149 c63 -45 67 -159 8 -198
    l-24 -16 40 -74 41 -74 -50 0 -50 0 -33 65 c-29 56 -38 65 -61 65 -28 0 -28
    -1 -28 -65 l0 -65 -45 0 -45 0 0 196 0 196 108 -3 c92 -4 112 -7 139 -27z
    m446 14 c38 -16 72 -51 86 -88 l11 -28 -50 0 c-39 0 -50 4 -55 19 -8 27 -64
    45 -98 32 -55 -21 -80 -104 -53 -175 25 -65 98 -88 144 -46 35 33 28 50 -18
    50 -39 0 -40 1 -40 35 l0 35 86 0 87 0 -6 -60 c-8 -93 -53 -141 -145 -156 -72
    -11 -152 30 -187 96 -50 97 -12 240 77 283 40 20 118 22 161 3z"/>
    <path d="M1793 835 l-21 -65 45 0 c32 0 44 4 41 13 -3 6 -13 36 -22 65 -10 28
    -19 52 -20 52 -1 0 -11 -29 -23 -65z"/>
    <path d="M2786 890 c-14 -36 -36 -103 -36 -111 0 -5 18 -9 40 -9 47 0 48 7 20
    85 -11 32 -20 45 -24 35z"/>
    <path d="M3200 880 l0 -63 47 7 c57 7 66 16 66 56 0 41 -12 51 -67 57 l-46 6
    0 -63z"/>
    <path d="M4184 926 c-41 -18 -58 -61 -52 -133 4 -46 10 -61 32 -80 30 -25 62
    -29 100 -12 58 27 71 165 19 212 -27 23 -64 28 -99 13z"/>
  </g>
</svg>
